<svg width="613" height="467" viewBox="0 0 613 467" fill="none" xmlns="http://www.w3.org/2000/svg">
<path d="M613 412.984H0V413.283H613V412.984Z" fill="#EBEBEB"/>
<path d="M290.562 359.683H53.8339C51.9794 359.679 50.2019 358.959 48.8918 357.68C47.5816 356.4 46.8457 354.666 46.8457 352.859V28.4747C46.8618 26.6773 47.6048 24.9587 48.9133 23.6922C50.2217 22.4257 51.99 21.7135 53.8339 21.7104H290.562C292.419 21.7104 294.199 22.4294 295.512 23.7091C296.825 24.9889 297.563 26.7246 297.563 28.5344V352.859C297.563 354.668 296.825 356.404 295.512 357.684C294.199 358.964 292.419 359.683 290.562 359.683ZM53.8339 21.9495C52.0607 21.9526 50.3612 22.6415 49.1085 23.8649C47.8558 25.0882 47.1522 26.7461 47.1522 28.4747V352.859C47.1522 354.587 47.8558 356.245 49.1085 357.468C50.3612 358.692 52.0607 359.381 53.8339 359.384H290.562C292.337 359.381 294.037 358.692 295.292 357.469C296.547 356.246 297.253 354.588 297.256 352.859V28.4747C297.253 26.745 296.547 25.0872 295.292 23.8641C294.037 22.6411 292.337 21.9526 290.562 21.9495H53.8339Z" fill="#EBEBEB"/>
<path d="M555.759 359.683H319.018C317.162 359.679 315.384 358.959 314.072 357.68C312.759 356.401 312.021 354.667 312.018 352.859V28.4747C312.037 26.6762 312.783 24.9576 314.093 23.6914C315.403 22.4252 317.173 21.7135 319.018 21.7104H555.759C557.6 21.7167 559.366 22.4302 560.671 23.6964C561.977 24.9625 562.718 26.6793 562.735 28.4747V352.859C562.735 354.664 562 356.396 560.693 357.675C559.385 358.954 557.611 359.676 555.759 359.683ZM319.018 21.9495C317.244 21.9526 315.543 22.6411 314.288 23.8641C313.034 25.0872 312.327 26.745 312.324 28.4747V352.859C312.327 354.588 313.034 356.246 314.288 357.469C315.543 358.692 317.244 359.381 319.018 359.384H555.759C557.533 359.381 559.234 358.692 560.488 357.469C561.743 356.246 562.449 354.588 562.453 352.859V28.4747C562.449 26.745 561.743 25.0872 560.488 23.8641C559.234 22.6411 557.533 21.9526 555.759 21.9495H319.018Z" fill="#EBEBEB"/>
<path d="M551.578 424.361H512.873V424.66H551.578V424.361Z" fill="#EBEBEB"/>
<path d="M411.127 421.123H370.166V421.421H411.127V421.123Z" fill="#EBEBEB"/>
<path d="M562.758 435.464H486.219V435.763H562.758V435.464Z" fill="#EBEBEB"/>
<path d="M87.8914 433.457H64.3154V433.755H87.8914V433.457Z" fill="#EBEBEB"/>
<path d="M135.951 433.457H98.8154V433.755H135.951V433.457Z" fill="#EBEBEB"/>
<path d="M299.316 428.412H232.426V428.711H299.316V428.412Z" fill="#EBEBEB"/>
<path d="M333.791 97.1567L263.934 165.265V392.082H509.121V97.1567H333.791Z" fill="white"/>
<path d="M509.121 392.727H263.921C263.745 392.727 263.577 392.659 263.453 392.538C263.329 392.417 263.259 392.253 263.259 392.082V165.265C263.259 165.181 263.276 165.097 263.31 165.019C263.343 164.941 263.393 164.87 263.455 164.811L333.337 96.691C333.462 96.5728 333.628 96.5046 333.803 96.4998H509.121C509.208 96.4998 509.294 96.5164 509.374 96.5489C509.454 96.5813 509.527 96.6288 509.589 96.6888C509.65 96.7487 509.699 96.8198 509.732 96.8981C509.766 96.9764 509.783 97.0604 509.783 97.1451V392.082C509.783 392.167 509.766 392.251 509.732 392.329C509.699 392.407 509.65 392.478 509.589 392.538C509.527 392.598 509.454 392.646 509.374 392.678C509.294 392.711 509.208 392.727 509.121 392.727ZM264.595 391.449H508.459V97.8024H334.073L264.595 165.528V391.449Z" fill="#E0E0E0"/>
<path d="M263.934 165.265L337.236 174.479L333.791 97.1567L263.934 165.265Z" fill="#E6E6E6"/>
<path d="M263.934 165.265H333.791V97.1567L263.934 165.265Z" fill="white"/>
<path d="M333.791 165.899H263.909C263.778 165.899 263.65 165.862 263.541 165.792C263.432 165.722 263.347 165.622 263.296 165.504C263.245 165.388 263.232 165.259 263.258 165.135C263.285 165.011 263.349 164.898 263.443 164.811L333.325 96.6909C333.419 96.6023 333.537 96.5418 333.665 96.5164C333.793 96.491 333.926 96.5017 334.048 96.5475C334.168 96.5983 334.27 96.6818 334.341 96.7878C334.413 96.8939 334.452 97.018 334.453 97.145V165.265C334.45 165.434 334.379 165.595 334.255 165.714C334.131 165.832 333.964 165.899 333.791 165.899ZM265.527 164.62H333.141V98.7106L265.527 164.62Z" fill="#E0E0E0"/>
<path d="M400.706 263.347L442.39 222.713C443.322 221.805 444.06 220.728 444.564 219.541C445.069 218.355 445.328 217.084 445.328 215.8C445.328 214.516 445.069 213.244 444.564 212.058C444.06 210.872 443.322 209.794 442.39 208.886C441.459 207.978 440.353 207.258 439.136 206.767C437.919 206.275 436.615 206.022 435.298 206.022C433.981 206.022 432.676 206.275 431.459 206.767C430.243 207.258 429.137 207.978 428.205 208.886L386.521 249.519L344.837 208.886C342.956 207.053 340.405 206.022 337.745 206.022C335.085 206.022 332.534 207.053 330.653 208.886C328.772 210.72 327.715 213.207 327.715 215.8C327.715 218.393 328.772 220.88 330.653 222.713L372.337 263.347L330.653 303.98C328.772 305.813 327.715 308.3 327.715 310.893C327.715 313.486 328.772 315.973 330.653 317.807C332.534 319.641 335.085 320.671 337.745 320.671C340.405 320.671 342.956 319.641 344.837 317.807L386.521 277.174L428.205 317.807C430.086 319.641 432.638 320.671 435.298 320.671C437.958 320.671 440.509 319.641 442.39 317.807C444.271 315.973 445.328 313.486 445.328 310.893C445.328 308.3 444.271 305.813 442.39 303.98L400.706 263.347Z" fill="#F0F0F0"/>
<path d="M273.398 229.657C271.047 231.947 267.858 233.233 264.534 233.233C261.21 233.233 258.022 231.947 255.67 229.657L215.445 190.434L233.173 173.153L273.398 212.423C275.733 214.714 277.043 217.811 277.043 221.04C277.043 224.269 275.733 227.366 273.398 229.657Z" fill="#F0F0F0"/>
<path d="M215.439 190.51L233.168 173.228L234.806 174.825C236.505 176.482 237.46 178.728 237.46 181.07C237.46 183.413 236.505 185.659 234.806 187.315L229.891 192.107C228.192 193.763 225.887 194.694 223.484 194.694C221.081 194.694 218.777 193.763 217.078 192.107L215.439 190.51Z" fill="#E0E0E0"/>
<path d="M103.855 64.3872C91.6899 76.2573 83.4083 91.3766 80.0568 107.834C76.7052 124.291 78.4342 141.347 85.0251 156.847C91.616 172.347 102.773 185.594 117.086 194.913C131.398 204.233 148.224 209.207 165.437 209.207C182.649 209.207 199.475 204.233 213.788 194.913C228.1 185.594 239.257 172.347 245.848 156.847C252.439 141.347 254.168 124.291 250.817 107.834C247.465 91.3766 239.183 76.2573 227.019 64.3872C218.935 56.4989 209.335 50.2411 198.768 45.9716C188.201 41.702 176.875 39.5044 165.437 39.5044C153.998 39.5044 142.672 41.702 132.105 45.9716C121.539 50.2411 111.939 56.4989 103.855 64.3872ZM221.992 179.546C210.808 190.449 196.558 197.873 181.045 200.881C165.532 203.889 149.452 202.345 134.84 196.444C120.227 190.544 107.737 180.552 98.9495 167.732C90.1621 154.913 85.4719 139.841 85.4719 124.423C85.4719 109.005 90.1621 93.9326 98.9495 81.1129C107.737 68.2931 120.227 58.3013 134.84 52.401C149.452 46.5007 165.532 44.9568 181.045 47.9646C196.558 50.9724 210.808 58.3969 221.992 69.2991C229.418 76.5379 235.309 85.1318 239.328 94.5899C243.347 104.048 245.416 114.185 245.416 124.423C245.416 134.66 243.347 144.797 239.328 154.255C235.309 163.714 229.418 172.307 221.992 179.546Z" fill="#E0E0E0"/>
<path d="M211.191 171.874C210.615 171.872 210.052 171.705 209.573 171.392C209.095 171.079 208.722 170.636 208.502 170.117C208.281 169.598 208.224 169.027 208.336 168.476C208.448 167.925 208.724 167.419 209.131 167.022C220.7 155.713 227.197 140.393 227.197 124.422C227.197 108.452 220.7 93.1323 209.131 81.8234C208.834 81.5659 208.594 81.2519 208.425 80.9007C208.257 80.5495 208.164 80.1685 208.153 79.781C208.141 79.3936 208.211 79.0079 208.357 78.6477C208.504 78.2874 208.725 77.9602 209.006 77.6861C209.287 77.412 209.623 77.1969 209.992 77.0538C210.362 76.9108 210.758 76.8429 211.155 76.8543C211.553 76.8657 211.943 76.9561 212.304 77.1201C212.664 77.2841 212.986 77.5182 213.25 77.8079C225.912 90.1795 233.022 106.941 233.022 124.417C233.022 141.892 225.912 158.654 213.25 171.025C212.981 171.292 212.661 171.504 212.307 171.649C211.954 171.795 211.574 171.871 211.191 171.874Z" fill="#E0E0E0"/>
<path d="M102.469 141.853C101.813 141.854 101.176 141.638 100.662 141.241C100.148 140.844 99.7867 140.289 99.6373 139.666C97.5167 130.912 97.2492 121.828 98.8512 112.97C100.453 104.112 103.891 95.6652 108.955 88.1457C109.381 87.5118 110.048 87.0688 110.809 86.9141C111.57 86.7595 112.363 86.9059 113.013 87.3211C113.663 87.7363 114.118 88.3863 114.276 89.1282C114.435 89.87 114.285 90.6429 113.859 91.2769C109.223 98.1458 106.071 105.863 104.595 113.959C103.12 122.054 103.352 130.358 105.277 138.363C105.368 138.726 105.384 139.103 105.325 139.472C105.265 139.84 105.131 140.194 104.931 140.512C104.73 140.83 104.466 141.106 104.155 141.324C103.844 141.542 103.492 141.697 103.119 141.781C102.906 141.827 102.688 141.851 102.469 141.853Z" fill="#E0E0E0"/>
<path d="M119.682 171.874C118.909 171.872 118.168 171.571 117.622 171.037C112.37 165.937 108.021 160.026 104.749 153.541C104.58 153.207 104.48 152.843 104.455 152.471C104.43 152.1 104.481 151.727 104.604 151.374C104.727 151.021 104.92 150.695 105.172 150.415C105.424 150.135 105.73 149.906 106.073 149.741C106.416 149.576 106.789 149.479 107.171 149.454C107.552 149.43 107.935 149.479 108.297 149.599C108.659 149.719 108.993 149.907 109.281 150.153C109.568 150.399 109.803 150.697 109.972 151.031C112.971 156.953 116.947 162.355 121.742 167.022C122.287 167.555 122.593 168.277 122.593 169.03C122.593 169.782 122.287 170.504 121.742 171.037C121.194 171.568 120.454 171.868 119.682 171.874Z" fill="#E0E0E0"/>
<path d="M258.726 338.895L270.187 350.066L243.573 376.01C242.212 377.336 240.366 378.082 238.441 378.082C236.516 378.082 234.67 377.336 233.309 376.01L232.104 374.835C230.742 373.508 229.978 371.709 229.978 369.832C229.978 367.956 230.742 366.156 232.104 364.83L258.718 338.886L258.726 338.895Z" fill="#F0F0F0"/>
<path d="M258.744 338.919L270.187 350.074L269.641 350.606C268.406 351.809 266.732 352.486 264.986 352.486C263.24 352.486 261.565 351.809 260.33 350.606L258.18 348.51C256.946 347.307 256.252 345.674 256.252 343.972C256.252 342.27 256.946 340.638 258.18 339.434L258.727 338.902L258.744 338.919Z" fill="#E0E0E0"/>
<path d="M348.613 278.297L321.763 304.458C318.783 307.571 317.16 311.691 317.237 315.948C317.314 320.206 319.084 324.268 322.174 327.277C325.265 330.287 329.434 332.008 333.801 332.078C338.169 332.149 342.394 330.563 345.584 327.654L356.447 317.078C358.734 303.653 355.95 289.875 348.613 278.297Z" fill="#F0F0F0"/>
<path d="M358.727 303.538C357.958 292.704 353.911 282.336 347.096 273.745C340.282 265.154 331.007 258.725 320.444 255.273C309.882 251.821 298.506 251.499 287.756 254.35C277.006 257.2 267.365 263.094 260.051 271.286C252.738 279.479 248.082 289.601 246.67 300.373C245.259 311.145 247.157 322.084 252.124 331.804C257.091 341.525 264.903 349.592 274.573 354.984C284.244 360.376 295.337 362.852 306.451 362.097C321.348 361.086 335.224 354.35 345.027 343.368C354.83 332.387 359.758 318.06 358.727 303.538ZM250.95 310.852C250.24 300.906 252.571 290.977 257.65 282.323C262.728 273.668 270.325 266.676 279.48 262.231C288.636 257.785 298.938 256.086 309.083 257.348C319.229 258.61 328.763 262.777 336.48 269.321C344.197 275.865 349.749 284.493 352.435 294.113C355.121 303.734 354.82 313.914 351.571 323.368C348.321 332.822 342.268 341.124 334.178 347.224C326.088 353.324 316.323 356.949 306.12 357.64C292.439 358.566 278.941 354.157 268.595 345.382C258.249 336.608 251.902 324.187 250.95 310.852Z" fill="#E0E0E0"/>
<path d="M273.864 339.498C269.525 335.832 265.971 331.366 263.406 326.358C260.842 321.35 259.317 315.898 258.919 310.314C258.891 310.067 258.914 309.817 258.987 309.579C259.061 309.341 259.183 309.121 259.346 308.93C259.509 308.739 259.71 308.583 259.937 308.47C260.164 308.357 260.412 308.29 260.666 308.273C260.921 308.256 261.176 308.29 261.416 308.371C261.657 308.453 261.878 308.581 262.066 308.749C262.255 308.916 262.406 309.118 262.512 309.344C262.618 309.57 262.676 309.814 262.683 310.063C263.434 320.354 268.338 329.936 276.32 336.712C284.302 343.487 294.713 346.904 305.274 346.214C305.771 346.181 306.262 346.342 306.638 346.661C307.014 346.98 307.244 347.432 307.278 347.917C307.313 348.402 307.148 348.88 306.82 349.247C306.492 349.613 306.029 349.838 305.531 349.871C299.812 350.258 294.071 349.542 288.637 347.761C283.203 345.981 278.182 343.173 273.864 339.498Z" fill="#E0E0E0"/>
<path d="M341.613 297.777C341.334 297.541 341.133 297.229 341.037 296.881C339.561 291.766 337.031 286.998 333.601 282.868C330.172 278.738 325.915 275.333 321.09 272.86C320.668 272.623 320.356 272.237 320.219 271.781C320.083 271.326 320.132 270.836 320.357 270.415C320.581 269.994 320.964 269.674 321.425 269.522C321.886 269.369 322.39 269.396 322.831 269.597C328.112 272.304 332.772 276.031 336.526 280.552C340.28 285.072 343.05 290.291 344.666 295.889C344.733 296.121 344.752 296.364 344.722 296.604C344.693 296.843 344.614 297.075 344.493 297.285C344.371 297.495 344.207 297.679 344.012 297.827C343.816 297.975 343.593 298.084 343.354 298.148C343.055 298.229 342.74 298.237 342.437 298.172C342.133 298.108 341.851 297.972 341.613 297.777Z" fill="#E0E0E0"/>
<path d="M298.397 268.055C298.022 267.731 297.793 267.276 297.759 266.789C297.725 266.304 297.889 265.826 298.216 265.459C298.542 265.092 299.003 264.865 299.5 264.829C304.282 264.505 309.086 264.945 313.722 266.131C313.963 266.193 314.19 266.301 314.389 266.448C314.587 266.596 314.754 266.78 314.88 266.99C315.006 267.2 315.088 267.433 315.122 267.674C315.155 267.915 315.14 268.161 315.076 268.396C315.013 268.631 314.902 268.852 314.751 269.046C314.6 269.24 314.411 269.403 314.195 269.525C313.98 269.648 313.741 269.728 313.494 269.761C313.246 269.793 312.995 269.778 312.753 269.716C308.522 268.625 304.136 268.222 299.77 268.521C299.267 268.546 298.775 268.379 298.397 268.055Z" fill="#E0E0E0"/>
<path d="M306.501 466.955C437.784 466.955 544.21 460.898 544.21 453.427C544.21 445.955 437.784 439.898 306.501 439.898C175.218 439.898 68.792 445.955 68.792 453.427C68.792 460.898 175.218 466.955 306.501 466.955Z" fill="#F5F5F5"/>
<path d="M168.968 130.321C159.086 140.013 175.882 155.059 164.787 161.967C173.847 166.401 205.601 172.03 213.827 154.593C207.832 150.052 212 138.89 206.471 128.17C198.196 112.275 159.086 119.314 168.968 130.321Z" fill="#263238"/>
<path d="M169.863 130.07C166.785 129.568 156.377 134.611 164.125 148.152C170.365 159.099 165.167 159.876 165.167 159.876C165.167 159.876 171.297 160.043 167.619 151.904C163.72 143.216 161.894 134.205 169.863 130.07Z" fill="#263238"/>
<path d="M242.749 216.044C242.37 215.368 241.734 214.864 240.977 214.64C240.22 214.417 239.404 214.492 238.703 214.849L237.98 215.22C237.747 215.339 237.306 215.626 236.95 215.829C236.595 216.032 236.178 216.259 235.786 216.451C235.012 216.83 234.214 217.157 233.395 217.431C231.88 217.966 230.286 218.26 228.675 218.303C227.195 218.32 225.723 218.089 224.322 217.622C223.433 217.3 222.575 216.9 221.76 216.427C220.706 214.156 219.7 211.861 218.842 209.495C217.8 206.734 216.881 203.914 216.071 201.058C215.262 198.202 214.551 195.309 213.963 192.405C213.656 190.959 213.387 189.501 213.141 188.055L212.81 185.892C212.7 185.199 212.602 184.41 212.541 183.86V183.621C212.378 182.037 211.576 180.58 210.312 179.571C209.047 178.563 207.423 178.085 205.798 178.243C204.172 178.402 202.677 179.183 201.643 180.416C200.608 181.649 200.118 183.232 200.281 184.816C200.366 185.832 200.44 186.609 200.55 187.458C200.661 188.306 200.783 189.119 200.906 189.943C201.176 191.593 201.482 193.218 201.825 194.843C202.507 198.073 203.366 201.264 204.4 204.404C204.878 205.982 205.467 207.535 206.018 209.101C206.57 210.666 207.244 212.196 207.943 213.714C209.281 216.78 210.8 219.769 212.492 222.665L212.639 222.928C213.079 223.706 213.738 224.345 214.539 224.768C216.856 226 219.36 226.863 221.956 227.326C224.622 227.785 227.355 227.728 229.999 227.159C233.73 226.315 237.158 224.502 239.917 221.912C240.371 221.506 240.8 221.088 241.143 220.645C241.486 220.203 241.903 219.785 242.369 219.163C242.729 218.732 242.955 218.21 243.022 217.657C243.09 217.105 242.995 216.546 242.749 216.044Z" fill="#FF8B7B"/>
<path d="M250.901 204.859H250.546C249.372 204.835 248.209 205.074 247.146 205.559C246.083 206.044 245.148 206.761 244.416 207.655L238.494 214.898V219.845C243.251 221.686 249.283 216.726 249.283 216.726L252.336 215.973C253.363 215.723 254.259 215.111 254.85 214.254C255.441 213.398 255.685 212.358 255.536 211.336L255.094 208.432C254.95 207.446 254.448 206.542 253.678 205.887C252.909 205.231 251.923 204.866 250.901 204.859Z" fill="#FF8B7B"/>
<path d="M212.38 176.929C216.34 180.897 216.585 192.741 216.585 192.741L200.745 205.169C200.745 205.169 194.235 187.602 197.839 181.399C200.892 176.141 207.329 171.874 212.38 176.929Z" fill="#407BFF"/>
<g opacity="0.2">
<path d="M212.381 176.929C216.341 180.897 216.586 192.74 216.586 192.74L200.746 205.169C200.746 205.169 194.236 187.601 197.84 181.399C200.893 176.14 207.33 171.874 212.381 176.929Z" fill="white"/>
</g>
<path d="M186.168 443.184L194.922 444.116L196.123 420.931L187.369 419.987L186.168 443.184Z" fill="#FF8B7B"/>
<path d="M196.357 438.547H186.07C185.863 438.541 185.661 438.613 185.508 438.749C185.355 438.885 185.262 439.074 185.249 439.276L184.563 448.753C184.562 449.249 184.761 449.725 185.116 450.08C185.471 450.435 185.954 450.641 186.463 450.654C190.803 450.654 190.852 450.654 196.271 450.654H210.872C215.36 450.654 215.372 446.22 213.435 445.813C204.718 444.021 201.322 441.535 198.245 439.169C197.704 438.762 197.039 438.544 196.357 438.547Z" fill="#263238"/>
<path opacity="0.2" d="M196.124 420.943L195.499 432.894H186.696L187.371 419.999L196.124 420.943Z" fill="black"/>
<path d="M200.844 235.955C200.844 235.955 208.421 297.777 208.421 325.264C202.45 363.507 197.387 430.623 197.387 430.623L185.274 430.312C185.274 430.312 179.769 357.221 184.869 325.658C178.335 297.382 170.268 232.13 170.268 232.13L200.844 235.955Z" fill="#263238"/>
<path opacity="0.2" d="M177.489 253.165C176.045 253.784 174.644 254.494 173.296 255.292C174.963 267.494 177.158 282.851 179.487 297.024C183.459 285.36 181.314 259.714 177.489 253.165Z" fill="black"/>
<path d="M91.374 421.66L98.5952 426.572L111.051 406.781L103.83 401.87L91.374 421.66Z" fill="#FF8B7B"/>
<path d="M100.422 423.979L94.2921 415.936C94.1754 415.771 93.997 415.657 93.7952 415.619C93.5935 415.581 93.3845 415.622 93.2132 415.733L84.999 420.871C84.5892 421.165 84.3145 421.605 84.2342 422.094C84.154 422.584 84.2745 423.085 84.5699 423.489C87.1323 426.895 87.1813 426.919 90.4057 431.149C92.4041 433.743 96.3886 438.965 99.1348 442.562C101.881 446.16 105.473 443.435 104.64 441.666C100.962 433.79 100.962 429.715 101.035 425.843C101.048 425.173 100.832 424.517 100.422 423.979Z" fill="#263238"/>
<path opacity="0.2" d="M111.04 406.781L104.628 416.988L96.8916 412.876L103.831 401.87L111.04 406.781Z" fill="black"/>
<path d="M135.669 429.954C129.404 429.954 116.36 429.954 116.139 420.967C115.968 413.916 124.917 410.988 132.641 410.63C133.497 410.59 134.352 410.714 135.159 410.996C135.965 411.279 136.707 411.713 137.341 412.274C137.975 412.836 138.489 413.514 138.855 414.269C139.22 415.025 139.429 415.843 139.47 416.677V417.155C148.224 416.749 153.888 414.884 155.96 411.705C160.631 404.535 151.681 386.023 143.038 368.132C132.862 347.087 121.337 323.245 121.117 300.406C121.109 299.572 121.269 298.743 121.59 297.969C121.91 297.194 122.384 296.489 122.984 295.893C123.584 295.297 124.298 294.822 125.086 294.496C125.875 294.169 126.721 293.997 127.578 293.989C129.296 293.992 130.944 294.654 132.165 295.833C133.385 297.012 134.081 298.612 134.1 300.287C134.296 320.341 145.134 342.844 154.77 362.707C165.804 385.628 175.429 405.431 166.908 418.517C161.967 426.214 151.73 429.954 135.669 429.954Z" fill="#407BFF"/>
<path d="M191.146 234.736C191.146 234.736 170.231 305.39 160.018 331.013C140.231 364.547 107.398 415.864 107.398 415.864L96.916 409.889C96.916 409.889 121.436 350.612 137.926 323.006C142.352 294.323 159.086 230.673 159.086 230.673L191.146 234.736Z" fill="#263238"/>
<path d="M102.311 429.751C102.727 430.423 103.368 430.933 104.126 431.197C104.347 431.249 104.58 431.24 104.796 431.17C105.013 431.101 105.205 430.973 105.352 430.803C105.454 430.712 105.531 430.598 105.578 430.471C105.625 430.344 105.64 430.208 105.621 430.074C105.474 428.64 101.674 426.776 100.914 426.417C100.869 426.399 100.82 426.398 100.775 426.414C100.73 426.429 100.692 426.46 100.668 426.501C100.639 426.545 100.623 426.597 100.623 426.65C100.623 426.703 100.639 426.755 100.668 426.799C101.119 427.832 101.669 428.82 102.311 429.751ZM104.923 429.751C105.03 429.883 105.102 430.039 105.131 430.205C105.137 430.252 105.131 430.299 105.114 430.343C105.097 430.387 105.069 430.426 105.033 430.456C104.934 430.566 104.807 430.648 104.665 430.695C104.523 430.741 104.37 430.749 104.224 430.719C103.415 430.564 102.348 429.285 101.318 427.265C102.653 427.872 103.872 428.697 104.923 429.703V429.751Z" fill="#407BFF"/>
<path d="M100.606 426.847L100.679 426.906C101.905 427.564 105.093 428.102 105.792 427.11C105.909 426.929 105.966 426.717 105.955 426.503C105.944 426.289 105.865 426.083 105.73 425.914C104.504 423.799 100.826 426.285 100.667 426.393C100.63 426.421 100.601 426.457 100.582 426.499C100.563 426.541 100.554 426.586 100.557 426.632C100.552 426.706 100.569 426.781 100.606 426.847ZM105.264 426.154C105.3 426.195 105.333 426.239 105.362 426.285C105.497 426.512 105.522 426.679 105.448 426.775C105.044 427.349 102.69 427.145 101.317 426.62C102.236 426.082 104.382 424.994 105.264 426.154Z" fill="#407BFF"/>
<path d="M202.292 440.518C203.095 440.59 203.9 440.392 204.572 439.957C204.743 439.811 204.868 439.623 204.935 439.412C205.002 439.201 205.008 438.976 204.952 438.762C204.935 438.627 204.886 438.497 204.809 438.383C204.733 438.269 204.631 438.174 204.511 438.104C203.285 437.375 199.447 439.228 198.7 439.61C198.657 439.633 198.625 439.669 198.607 439.713C198.589 439.756 198.587 439.804 198.601 439.849C198.62 439.899 198.651 439.944 198.692 439.979C198.732 440.015 198.781 440.04 198.834 440.052C199.967 440.322 201.126 440.479 202.292 440.518ZM203.812 438.451C203.987 438.44 204.161 438.477 204.315 438.558C204.376 438.558 204.437 438.642 204.462 438.786C204.494 438.928 204.486 439.077 204.438 439.216C204.391 439.355 204.306 439.479 204.192 439.574C203.591 440.112 201.899 440.184 199.619 439.789C200.908 439.116 202.305 438.663 203.751 438.451H203.812Z" fill="#407BFF"/>
<path d="M198.833 440.113H198.919C200.145 439.564 202.535 437.377 202.143 436.241C202.061 436.053 201.925 435.893 201.75 435.781C201.576 435.668 201.371 435.608 201.162 435.608C198.71 435.333 198.539 439.659 198.526 439.838C198.527 439.886 198.539 439.933 198.563 439.975C198.586 440.016 198.62 440.052 198.661 440.078C198.713 440.106 198.773 440.119 198.833 440.113ZM201.04 436.05H201.211C201.469 436.05 201.628 436.158 201.665 436.277C201.898 436.934 200.329 438.667 199.066 439.42C199.176 438.38 199.568 436.05 201.064 436.05H201.04Z" fill="#407BFF"/>
<path d="M159.086 230.733L200.844 235.943C210.259 205.038 213.361 190.112 214.195 182.929C214.415 181.124 213.982 179.3 212.971 177.773C211.959 176.245 210.432 175.11 208.653 174.563C206.201 173.799 203.038 172.89 199.899 172.173C198.833 171.898 197.742 171.647 196.675 171.408C190.424 170.172 184.09 169.373 177.721 169.018C176.777 168.935 175.845 168.887 174.901 168.839C173.05 168.743 171.223 168.719 169.556 168.719C168.305 168.718 167.066 168.971 165.921 169.461C164.775 169.952 163.747 170.67 162.901 171.569C162.056 172.469 161.412 173.53 161.01 174.685C160.609 175.841 160.459 177.065 160.569 178.28C160.9 181.866 161.158 185.2 161.354 188.259C161.82 195.43 161.967 201.166 161.857 206.186C161.606 214.427 160.68 222.636 159.086 230.733Z" fill="#407BFF"/>
<g opacity="0.3">
<path d="M159.085 230.732L200.843 235.943C210.258 205.038 213.36 190.111 214.194 182.929C214.414 181.123 213.981 179.3 212.97 177.772C211.958 176.245 210.431 175.11 208.652 174.563C206.2 173.798 203.037 172.89 199.899 172.173C198.832 171.898 197.741 171.647 196.674 171.408C190.423 170.172 184.089 169.373 177.72 169.018C176.776 168.934 175.844 168.886 174.9 168.839C173.049 168.743 171.222 168.719 169.555 168.719C168.304 168.718 167.066 168.97 165.92 169.461C164.774 169.952 163.746 170.669 162.9 171.569C162.055 172.468 161.411 173.53 161.009 174.685C160.608 175.84 160.458 177.065 160.568 178.28C160.899 181.865 161.157 185.199 161.353 188.259C161.819 195.429 161.966 201.166 161.856 206.185C161.605 214.426 160.679 222.635 159.085 230.732Z" fill="white"/>
</g>
<path opacity="0.3" d="M161.832 206.137C167.349 199.181 169.347 191.222 167.557 186.836L161.329 188.199C161.832 195.345 161.967 201.106 161.832 206.137Z" fill="#407BFF"/>
<path d="M199.899 172.102C198.82 171.827 197.741 171.576 196.675 171.337C190.418 170.106 184.081 169.307 177.709 168.947C176.765 168.875 175.833 168.827 174.901 168.779L173.271 168.708L174.497 170.799C174.668 171.086 178.837 177.73 189.209 184.877L191.428 186.383L193.561 184.793C195.615 183.357 197.294 181.469 198.461 179.283C199.628 177.097 200.251 174.674 200.279 172.209L199.899 172.102Z" fill="white"/>
<path d="M182.319 156.66C181.926 161.692 180.713 166.819 177.709 168.97C177.709 168.97 181.534 175.172 191.44 181.948C197.644 177.323 196.675 171.336 196.675 171.336C190.079 168.946 190.545 164.488 193.328 157.377L188.179 154.676C187.735 154.199 187.156 153.86 186.516 153.701C185.875 153.541 185.201 153.569 184.576 153.781C183.952 153.992 183.405 154.378 183.003 154.89C182.602 155.402 182.364 156.017 182.319 156.66Z" fill="#FF8B7B"/>
<path opacity="0.2" d="M188.179 154.677C187.762 154.227 187.225 153.899 186.629 153.729C186.032 153.558 185.399 153.552 184.799 153.71C184.199 153.868 183.655 154.185 183.228 154.626C182.801 155.066 182.508 155.613 182.38 156.206C184.336 160.051 187.49 163.193 191.391 165.182C191.531 162.486 192.183 159.84 193.316 157.378L188.179 154.677Z" fill="black"/>
<path d="M174.3 140.885C176.862 150.601 177.733 154.76 183.826 158.812C192.984 164.954 204.668 159.768 205.122 149.514C205.551 140.276 201.297 125.935 190.655 123.879C188.306 123.411 185.873 123.537 183.588 124.246C181.303 124.954 179.242 126.222 177.602 127.927C175.962 129.632 174.798 131.718 174.22 133.987C173.642 136.255 173.669 138.63 174.3 140.885Z" fill="#FF8B7B"/>
<path d="M199.667 125.887C193.664 131.089 186.543 134.915 178.825 137.085C178.825 137.085 186.439 152.872 172.193 148.892C168.061 135.448 172.193 128.468 175.871 125.182C187.199 121.597 195.168 120.401 199.667 125.887Z" fill="#263238"/>
<path d="M173.824 150.458C174.659 152.218 176.176 153.585 178.041 154.258C180.493 155.119 181.952 153.063 181.425 150.673C180.947 148.534 179.084 145.498 176.521 145.654C175.967 145.7 175.433 145.879 174.967 146.175C174.501 146.471 174.117 146.875 173.85 147.35C173.583 147.826 173.441 148.359 173.437 148.901C173.432 149.443 173.565 149.978 173.824 150.458Z" fill="#FF8B7B"/>
<path d="M158.78 228.271L156.413 231.677C156.23 231.94 156.536 232.274 157.014 232.334L200.807 237.807C201.187 237.807 201.518 237.712 201.579 237.485L202.437 233.899C202.437 233.648 202.192 233.398 201.788 233.338L159.491 228.055C159.363 228.026 159.23 228.031 159.105 228.069C158.98 228.107 158.868 228.176 158.78 228.271Z" fill="#407BFF"/>
<path d="M163.843 233.589L162.715 233.445C162.494 233.445 162.335 233.278 162.372 233.147L163.524 228.474C163.568 228.395 163.638 228.333 163.722 228.298C163.807 228.264 163.901 228.258 163.99 228.283L165.13 228.426C165.351 228.426 165.51 228.581 165.473 228.725L164.321 233.386C164.284 233.529 164.076 233.613 163.843 233.589Z" fill="#263238"/>
<path d="M197.57 237.796L196.442 237.664C196.222 237.664 196.062 237.497 196.099 237.354L197.251 232.693C197.251 232.561 197.497 232.466 197.717 232.49L198.858 232.633C199.078 232.633 199.238 232.8 199.201 232.932L198.048 237.604C198.012 237.736 197.803 237.832 197.57 237.796Z" fill="#263238"/>
<path d="M180.713 235.692L179.585 235.549C179.352 235.549 179.193 235.393 179.23 235.25L180.382 230.589C180.382 230.446 180.628 230.362 180.86 230.386L181.988 230.529C182.209 230.529 182.368 230.697 182.344 230.828L181.179 235.501C181.155 235.632 180.934 235.716 180.713 235.692Z" fill="#263238"/>
<path d="M191.379 140.467C191.526 141.268 192.09 141.842 192.605 141.734C193.12 141.627 193.451 140.91 193.291 140.109C193.132 139.308 192.568 138.735 192.065 138.842C191.562 138.95 191.256 139.667 191.379 140.467Z" fill="#263238"/>
<path d="M200.646 138.734C200.806 139.535 201.37 140.096 201.872 140.001C202.375 139.905 202.718 139.164 202.559 138.364C202.4 137.563 201.836 137.001 201.333 137.097C200.83 137.192 200.499 137.933 200.646 138.734Z" fill="#263238"/>
<path d="M201.064 137.192L202.928 136.26C202.928 136.26 202.29 137.957 201.064 137.192Z" fill="#263238"/>
<path d="M198.195 140.527C199.291 142.211 200.615 143.742 202.131 145.08C201.772 145.452 201.333 145.743 200.845 145.931C200.358 146.119 199.834 146.2 199.311 146.168L198.195 140.527Z" fill="#FF5652"/>
<path d="M192.408 149.395C192.371 149.436 192.35 149.489 192.349 149.544C192.347 149.599 192.365 149.653 192.4 149.697C192.435 149.741 192.484 149.771 192.539 149.784C192.594 149.796 192.652 149.789 192.702 149.765C193.629 149.304 194.654 149.064 195.694 149.064C196.734 149.064 197.759 149.304 198.685 149.765C198.741 149.796 198.806 149.804 198.868 149.789C198.93 149.773 198.983 149.735 199.016 149.681C199.05 149.627 199.061 149.562 199.047 149.5C199.034 149.438 198.996 149.383 198.943 149.347C197.943 148.848 196.836 148.587 195.712 148.587C194.589 148.587 193.482 148.848 192.482 149.347C192.482 149.347 192.482 149.371 192.408 149.395Z" fill="#263238"/>
<path d="M188.179 138.005C188.255 137.96 188.315 137.893 188.351 137.814C188.607 137.269 188.991 136.791 189.473 136.419C189.954 136.047 190.519 135.792 191.122 135.675C191.187 135.667 191.249 135.647 191.306 135.616C191.362 135.585 191.412 135.543 191.452 135.493C191.492 135.443 191.521 135.386 191.538 135.325C191.555 135.263 191.56 135.2 191.551 135.137C191.545 135.074 191.526 135.014 191.495 134.958C191.465 134.903 191.423 134.855 191.373 134.816C191.322 134.777 191.264 134.748 191.202 134.731C191.14 134.714 191.075 134.71 191.012 134.718C190.245 134.858 189.524 135.174 188.908 135.639C188.292 136.105 187.798 136.707 187.468 137.395C187.421 137.49 187.406 137.597 187.427 137.7C187.448 137.803 187.504 137.896 187.585 137.966C187.665 138.035 187.768 138.076 187.875 138.084C187.983 138.091 188.09 138.063 188.179 138.005Z" fill="#263238"/>
<path d="M203.406 131.946L203.467 131.886C203.504 131.835 203.531 131.776 203.545 131.715C203.559 131.653 203.56 131.589 203.549 131.527C203.538 131.465 203.514 131.405 203.479 131.352C203.443 131.299 203.398 131.253 203.344 131.217C202.711 130.773 201.977 130.483 201.206 130.371C200.434 130.258 199.645 130.327 198.906 130.572C198.788 130.622 198.694 130.714 198.644 130.83C198.594 130.946 198.591 131.076 198.637 131.193C198.686 131.31 198.78 131.404 198.9 131.453C199.019 131.502 199.154 131.504 199.274 131.456C199.861 131.269 200.486 131.221 201.096 131.316C201.706 131.412 202.283 131.648 202.78 132.006C202.875 132.071 202.99 132.101 203.105 132.09C203.22 132.079 203.327 132.028 203.406 131.946Z" fill="#263238"/>
<path d="M191.832 138.926L193.696 138.005C193.696 138.005 192.972 139.69 191.832 138.926Z" fill="#263238"/>
<path d="M127.638 306.704C125.919 306.704 124.269 306.043 123.048 304.863C121.826 303.684 121.132 302.082 121.116 300.406C120.944 283.436 126.743 269.107 137.888 258.972C151.607 246.496 173 240.699 198.158 242.635C215.8 243.998 227.116 239.815 240.21 234.951C242.367 234.162 244.537 233.35 246.769 232.561C248.395 231.984 250.189 232.06 251.757 232.773C253.325 233.486 254.538 234.776 255.13 236.361C255.722 237.946 255.644 239.695 254.912 241.224C254.181 242.752 252.857 243.935 251.231 244.512C249.061 245.277 246.953 246.065 244.856 246.842C231.505 251.79 217.713 256.893 197.128 255.315C175.673 253.654 157.798 258.255 146.788 268.27C138.206 276.014 134.026 286.782 134.161 300.287C134.169 301.122 134.008 301.95 133.688 302.724C133.367 303.499 132.894 304.204 132.294 304.8C131.694 305.396 130.979 305.871 130.191 306.198C129.403 306.524 128.556 306.697 127.7 306.704H127.638Z" fill="#407BFF"/>
<path d="M278.48 253.489L252.245 262.858C250.056 263.639 247.638 263.541 245.523 262.585C243.408 261.629 241.769 259.893 240.967 257.759L230.133 228.931C229.331 226.797 229.432 224.44 230.412 222.378C231.393 220.317 233.174 218.719 235.363 217.938L261.599 208.569L278.468 253.455L278.48 253.489Z" fill="#407BFF"/>
<path opacity="0.7" d="M278.48 253.489L252.245 262.858C250.056 263.639 247.638 263.541 245.523 262.585C243.408 261.629 241.769 259.893 240.967 257.759L230.133 228.931C229.331 226.797 229.432 224.44 230.412 222.378C231.393 220.317 233.174 218.719 235.363 217.938L261.599 208.569L278.468 253.455L278.48 253.489Z" fill="white"/>
<path opacity="0.2" d="M249.908 212.734L261.617 208.563L278.487 253.475L266.778 257.658C265.999 256.923 265.403 256.024 265.037 255.029L250.325 215.842C249.94 214.851 249.798 213.788 249.908 212.734Z" fill="#407BFF"/>
<path d="M287.909 219.751L286.758 220.162L289.567 227.635L290.718 227.224L287.909 219.751Z" fill="#407BFF"/>
<path d="M284.984 215.507L280.852 204.488C280.143 202.62 278.865 201.008 277.188 199.869C275.511 198.73 273.517 198.119 271.473 198.118C270.31 198.115 269.156 198.313 268.065 198.704L260.611 201.369L260.182 200.245L267.648 197.58C268.873 197.143 270.168 196.92 271.473 196.923C273.769 196.928 276.009 197.618 277.891 198.9C279.774 200.182 281.209 201.994 282.004 204.094L286.136 215.112L284.984 215.507Z" fill="#407BFF"/>
<path d="M278.685 256.707L289.633 252.847C293.21 251.586 295.061 247.737 293.767 244.25L278.906 204.202C277.613 200.715 273.664 198.91 270.087 200.172L259.139 204.032C255.562 205.293 253.711 209.142 255.005 212.629L269.865 252.678C271.159 256.164 275.108 257.969 278.685 256.707Z" fill="#407BFF"/>
<path d="M272.418 216.356C272.668 217.022 272.71 217.746 272.538 218.435C272.366 219.124 271.987 219.749 271.451 220.228C270.915 220.708 270.245 221.022 269.525 221.13C268.806 221.239 268.07 221.136 267.41 220.837C266.75 220.537 266.197 220.053 265.819 219.446C265.442 218.84 265.258 218.137 265.29 217.429C265.322 216.72 265.569 216.036 266 215.464C266.431 214.893 267.026 214.458 267.711 214.216C268.626 213.893 269.636 213.936 270.518 214.337C271.401 214.738 272.084 215.464 272.418 216.356Z" fill="#263238"/>
<path d="M281.576 240.723C281.825 241.389 281.866 242.113 281.694 242.801C281.521 243.49 281.143 244.113 280.607 244.593C280.071 245.072 279.402 245.386 278.683 245.494C277.965 245.603 277.229 245.501 276.57 245.202C275.91 244.903 275.357 244.421 274.979 243.815C274.6 243.209 274.415 242.508 274.446 241.8C274.476 241.092 274.722 240.408 275.151 239.836C275.58 239.263 276.173 238.828 276.856 238.584C277.31 238.422 277.792 238.349 278.275 238.369C278.758 238.389 279.233 238.501 279.671 238.7C280.109 238.899 280.503 239.18 280.83 239.527C281.157 239.874 281.411 240.281 281.576 240.723Z" fill="#263238"/>
<path d="M174.092 237.843L173.994 237.736C172.082 235.872 170.059 233.84 168.232 231.76C166.405 229.681 164.615 227.602 162.985 225.45C161.386 223.352 159.932 221.152 158.632 218.865C157.702 217.23 156.911 215.523 156.266 213.762C157.002 211.372 157.787 208.982 158.718 206.687C159.785 203.927 160.986 201.214 162.298 198.537C163.61 195.86 165.008 193.231 166.516 190.661C167.251 189.371 168.024 188.092 168.821 186.837L170.047 184.996C170.427 184.399 170.88 183.801 171.199 183.287L171.334 183.096C172.205 181.801 172.527 180.227 172.231 178.706C171.935 177.184 171.045 175.834 169.748 174.94C168.45 174.045 166.848 173.677 165.277 173.912C163.707 174.148 162.292 174.968 161.33 176.201C160.717 177.013 160.251 177.659 159.76 178.364C159.27 179.069 158.829 179.774 158.363 180.479C157.468 181.889 156.597 183.311 155.764 184.757C154.105 187.642 152.603 190.61 151.264 193.649C150.578 195.155 150.038 196.696 149.339 198.238C148.641 199.78 148.175 201.345 147.684 202.947C146.644 206.12 145.788 209.348 145.122 212.615V212.89C144.932 213.762 144.995 214.669 145.306 215.507C146.494 218.571 148.071 221.478 150.001 224.16C151.819 226.705 153.844 229.103 156.058 231.33C158.214 233.476 160.503 235.492 162.911 237.365C165.319 239.236 167.845 240.957 170.476 242.516C171.114 242.88 171.867 243.005 172.594 242.867C173.32 242.728 173.969 242.337 174.421 241.765C174.872 241.193 175.094 240.481 175.044 239.761C174.995 239.041 174.679 238.364 174.154 237.855L174.092 237.843Z" fill="#FF8B7B"/>
<path d="M188.34 243.783L188.18 243.472C187.671 242.436 186.922 241.53 185.992 240.825C185.063 240.12 183.977 239.635 182.823 239.409L173.517 237.568L168.969 239.779C169.459 244.751 176.742 247.726 176.742 247.726L178.814 250.033C179.512 250.806 180.479 251.301 181.529 251.422C182.579 251.544 183.637 251.283 184.502 250.69L186.954 248.981C187.778 248.414 188.37 247.581 188.623 246.629C188.877 245.677 188.776 244.669 188.34 243.783Z" fill="#FF8B7B"/>
<path d="M165.744 169.484C160.582 171.79 155.09 179.773 155.09 179.773L166.124 199.911C166.124 199.911 178.666 185.821 177.611 178.77C176.753 172.782 172.315 166.544 165.744 169.484Z" fill="#407BFF"/>
<g opacity="0.3">
<path d="M165.743 169.484C160.581 171.79 155.089 179.773 155.089 179.773L166.123 199.911C166.123 199.911 178.665 185.821 177.61 178.77C176.752 172.782 172.314 166.544 165.743 169.484Z" fill="white"/>
</g>
<path d="M518.954 433.336C508.152 433.336 497.535 431.173 492.386 424.624C468.013 393.552 468.234 331.048 468.442 270.565C468.565 237.998 471.201 207.225 467.486 183.323C465.304 169.233 457.678 159.564 449.979 154.569C438.552 147.207 422.86 151.163 416.153 152.848C415.318 153.076 414.444 153.138 413.584 153.033C412.723 152.927 411.893 152.655 411.142 152.233C410.39 151.811 409.733 151.247 409.207 150.574C408.682 149.901 408.3 149.133 408.083 148.314C407.866 147.496 407.819 146.643 407.944 145.807C408.07 144.97 408.365 144.166 408.813 143.442C409.26 142.718 409.852 142.088 410.552 141.59C411.253 141.091 412.048 140.734 412.892 140.539C421.266 138.423 440.906 133.488 457.163 143.957C468.136 151.02 477.625 163.628 480.384 181.423C484.245 206.281 481.61 237.508 481.487 270.565C481.279 328.921 481.07 389.261 502.746 416.856C504.499 419.079 511.328 421.075 522.668 420.501C523.674 420.501 524.654 420.393 525.623 420.31C525.184 419.444 524.958 418.491 524.961 417.525C524.961 415.839 525.648 414.222 526.871 413.029C528.094 411.837 529.753 411.167 531.483 411.167C545.742 411.167 553.245 412.362 554.691 418.72C555.108 420.549 555.329 425.138 548.439 428.281C543.29 430.635 531.005 433.336 518.954 433.336Z" fill="#407BFF"/>
<path d="M376.223 438.822L362.921 433.718L369.934 411.239L383.248 416.33L376.223 438.822Z" fill="#FFC3BD"/>
<path d="M362.602 432.344L377.608 438.081C377.798 438.156 377.957 438.291 378.059 438.464C378.161 438.638 378.201 438.839 378.172 439.037L376.701 448.144C376.663 448.364 376.574 448.573 376.442 448.755C376.31 448.937 376.138 449.089 375.938 449.198C375.738 449.306 375.515 449.37 375.287 449.384C375.058 449.398 374.829 449.362 374.617 449.279C370.853 447.761 364.956 445.251 360.187 443.423C357.257 442.3 351.678 440.507 347.62 438.953C343.562 437.4 344.617 433.289 346.394 433.575C354.474 434.842 357.563 433.492 360.787 432.32C361.373 432.102 362.023 432.111 362.602 432.344Z" fill="#263238"/>
<path opacity="0.2" d="M383.247 416.342L369.933 411.239L366.316 422.831L379.631 427.934L383.247 416.342Z" fill="black"/>
<path d="M399.885 242.337C399.885 242.337 387.845 300.346 383.248 328.957C378.074 361.021 364.404 419.593 364.404 419.593L382.095 426.369C382.095 426.369 407.363 366.399 410.882 337.358C421.487 313.755 442.574 244.297 442.574 244.297L399.885 242.337Z" fill="#407BFF"/>
<path d="M363.546 419.688L382.966 427.133L386.288 421.397L364.576 412.625L363.546 419.688Z" fill="#263238"/>
<path d="M358.789 432.595C358.112 432.39 357.525 431.969 357.121 431.4C357.01 431.19 356.951 430.956 356.951 430.719C356.951 430.482 357.01 430.248 357.121 430.038C357.171 429.908 357.257 429.794 357.37 429.71C357.483 429.625 357.617 429.573 357.759 429.56C359.046 429.428 361.437 432.488 361.67 432.846C361.696 432.885 361.71 432.931 361.71 432.978C361.71 433.025 361.696 433.07 361.67 433.109C361.644 433.148 361.607 433.18 361.564 433.199C361.52 433.218 361.472 433.224 361.425 433.217C360.525 433.104 359.642 432.895 358.789 432.595ZM358.139 430.098C358.04 430.05 357.93 430.029 357.82 430.038C357.747 430.038 357.661 430.038 357.575 430.241C357.493 430.383 357.451 430.544 357.451 430.707C357.451 430.87 357.493 431.031 357.575 431.173C357.93 431.807 359.156 432.368 360.934 432.655C360.188 431.629 359.237 430.759 358.139 430.098Z" fill="#407BFF"/>
<path d="M361.4 433.204C361.36 433.191 361.326 433.166 361.302 433.132C360.517 432.224 359.414 429.416 360.076 428.448C360.178 428.297 360.33 428.186 360.506 428.131C360.682 428.077 360.872 428.083 361.044 428.149C361.227 428.194 361.397 428.276 361.545 428.389C361.693 428.502 361.815 428.644 361.903 428.806C362.663 430.133 361.805 432.929 361.768 433.049C361.753 433.091 361.728 433.129 361.693 433.158C361.659 433.188 361.617 433.208 361.572 433.216C361.545 433.229 361.514 433.235 361.484 433.232C361.454 433.23 361.425 433.221 361.4 433.204ZM360.983 428.639H360.885C360.566 428.567 360.493 428.639 360.456 428.746C360.088 429.32 360.689 431.352 361.388 432.463C361.737 431.357 361.737 430.175 361.388 429.069C361.31 428.883 361.167 428.73 360.983 428.639Z" fill="#407BFF"/>
<path opacity="0.2" d="M425.839 277.46C419.169 285.515 416.533 306.047 416.558 323.161C421.057 311.078 426.219 295.733 430.755 281.798L425.839 277.46Z" fill="black"/>
<path d="M456.28 440.985H441.985L440.085 417.562H454.38L456.28 440.985Z" fill="#FFC3BD"/>
<path d="M441.175 439.814H457.297C457.504 439.812 457.705 439.88 457.866 440.006C458.026 440.133 458.138 440.31 458.18 440.507L460.227 449.494C460.275 449.713 460.272 449.94 460.217 450.158C460.163 450.376 460.059 450.579 459.913 450.753C459.767 450.926 459.583 451.065 459.374 451.16C459.165 451.254 458.937 451.301 458.707 451.298C454.637 451.227 448.225 450.988 443.1 450.988C439.937 450.988 434.077 451.31 429.725 451.31C425.372 451.31 424.821 447.116 426.574 446.733C434.58 445.024 436.958 442.682 439.508 440.435C439.968 440.037 440.561 439.816 441.175 439.814Z" fill="#263238"/>
<path opacity="0.2" d="M454.381 417.562H440.073L441.066 429.644H455.374L454.381 417.562Z" fill="black"/>
<path d="M417.195 243.066C417.195 243.066 425.115 307.708 426.783 330.977C429.1 363.364 438.062 427.301 438.062 427.301H457.065C457.065 427.301 459.1 362.001 455.667 332.949C460.4 307.601 458.904 245.014 458.904 245.014L417.195 243.066Z" fill="#407BFF"/>
<path d="M437.303 427.695H458.17L459.114 421.182L435.611 420.751L437.303 427.695Z" fill="#263238"/>
<path d="M437.682 441.403C436.976 441.455 436.272 441.274 435.684 440.889C435.501 440.733 435.359 440.537 435.27 440.317C435.18 440.096 435.146 439.859 435.169 439.623C435.169 439.482 435.209 439.343 435.285 439.223C435.361 439.103 435.469 439.005 435.598 438.942C436.751 438.368 440.098 440.376 440.502 440.603C440.545 440.626 440.579 440.661 440.601 440.704C440.623 440.746 440.631 440.794 440.625 440.842C440.614 440.89 440.59 440.934 440.555 440.969C440.521 441.005 440.477 441.031 440.429 441.045C439.53 441.265 438.609 441.385 437.682 441.403ZM436.138 439.312C436.028 439.305 435.918 439.326 435.819 439.372C435.758 439.372 435.684 439.467 435.672 439.647C435.646 439.807 435.663 439.972 435.721 440.125C435.779 440.277 435.876 440.413 436.003 440.519C436.567 440.985 437.928 441.045 439.681 440.698C438.614 440.021 437.424 439.55 436.174 439.312H436.138Z" fill="#407BFF"/>
<path d="M440.38 441.044H440.257C439.19 440.47 437.106 438.259 437.327 437.124C437.364 436.948 437.462 436.79 437.605 436.676C437.748 436.563 437.927 436.502 438.111 436.502C438.297 436.477 438.486 436.49 438.666 436.542C438.845 436.593 439.012 436.682 439.154 436.801C440.38 437.769 440.613 440.685 440.625 440.805C440.627 440.849 440.618 440.892 440.599 440.932C440.58 440.972 440.551 441.006 440.514 441.032C440.471 441.046 440.425 441.051 440.38 441.044ZM438.283 436.945H438.173C437.854 436.945 437.829 437.136 437.817 437.196C437.682 437.853 439.043 439.586 440.073 440.327C439.998 439.172 439.572 438.065 438.847 437.148C438.688 437.02 438.489 436.949 438.283 436.945Z" fill="#407BFF"/>
<path d="M423.754 153.923L412.303 153.78C408.454 153.78 404.629 153.661 400.84 153.601C399.688 153.601 398.56 153.529 397.42 153.481C397.493 153.481 397.542 153.35 397.604 153.29C398.413 152.453 399.222 151.593 400.056 150.768C400.472 150.338 400.881 149.92 401.282 149.514C401.662 149.107 402.152 148.653 402.41 148.318L403.452 147.028C404.273 146.006 404.744 144.759 404.797 143.462C404.85 142.165 404.483 140.885 403.747 139.803C403.012 138.721 401.946 137.892 400.7 137.434C399.454 136.977 398.092 136.913 396.807 137.252L394.539 137.849C393.84 138.053 393.141 138.28 392.442 138.507C391.069 138.973 389.72 139.487 388.384 140.048C385.691 141.207 383.089 142.558 380.599 144.088C378.02 145.695 375.58 147.505 373.304 149.502C370.896 151.636 368.715 154.003 366.794 156.565C366.309 157.204 365.898 157.893 365.568 158.62C364.43 161.164 364.374 164.044 365.413 166.628C366.452 169.212 368.501 171.288 371.11 172.4L372.225 172.878C374.744 173.934 377.354 174.774 380.023 175.387C382.352 175.973 384.559 176.355 386.729 176.714C388.899 177.072 391.02 177.359 393.129 177.61C395.237 177.861 397.322 178.052 399.406 178.22C403.562 178.578 407.681 178.757 411.788 178.877C415.896 178.996 419.917 178.996 424.183 178.805C427.51 178.667 430.65 177.268 432.934 174.906C435.218 172.544 436.466 169.406 436.412 166.16C436.357 162.915 435.005 159.818 432.643 157.53C430.281 155.243 427.096 153.944 423.766 153.911L423.754 153.923Z" fill="#FFC3BD"/>
<path d="M430.424 175.734C420.531 186.729 396.722 182.618 396.722 182.618L398.034 155.226C406.195 153.475 414.517 152.535 422.872 152.418C436.849 152.394 438.344 166.914 430.424 175.734Z" fill="#263238"/>
<path d="M404.015 167.308C403.427 171.73 402.789 177.682 402.409 185.689C397.248 211.144 395.323 229.178 399.884 242.336C403.488 246.675 450.456 245.838 458.903 245.001C463.807 233.17 464.322 199.206 464.899 170.655C464.971 166.72 463.595 162.891 461.019 159.861C458.444 156.831 454.84 154.801 450.861 154.139C440.291 152.312 429.509 151.958 418.838 153.087C415.092 153.502 411.597 155.129 408.911 157.706C406.224 160.284 404.501 163.664 404.015 167.308Z" fill="#263238"/>
<path opacity="0.2" d="M449.587 184.685C449.747 193.385 456.22 207.284 463.502 214.335C463.944 206.985 464.226 199.014 464.446 190.971L449.587 184.685Z" fill="black"/>
<path d="M490.509 201.596L490.092 200.64C488.379 196.653 486.375 192.791 484.097 189.083C481.915 185.498 479.561 182.116 477.121 178.853C474.682 175.591 472.095 172.471 469.447 169.436C468.098 167.93 466.762 166.424 465.352 164.966L463.231 162.791L460.975 160.568C458.612 158.294 455.433 157.006 452.113 156.977C448.792 156.948 445.59 158.181 443.186 160.414C440.782 162.647 439.365 165.705 439.234 168.94C439.103 172.174 440.27 175.331 442.487 177.742L442.855 178.136L450.051 185.94C452.503 188.593 454.845 191.294 457.174 193.983C458.302 195.334 459.467 196.684 460.521 198.058C461.576 199.433 462.691 200.759 463.746 202.122C465.266 204.189 466.737 206.245 468.049 208.264C467.848 209.284 467.594 210.293 467.289 211.288C466.408 214.183 465.372 217.031 464.187 219.821C462.961 222.773 461.661 225.796 460.313 228.772C458.964 231.748 457.518 234.855 456.23 237.843L456.108 238.106C455.543 239.427 455.457 240.896 455.865 242.27C456.272 243.645 457.149 244.843 458.349 245.666C459.55 246.489 461.002 246.889 462.467 246.799C463.932 246.708 465.322 246.133 466.406 245.169C469.11 242.725 471.677 240.14 474.093 237.425C476.545 234.74 478.846 231.911 480.995 228.94C482.087 227.446 483.129 225.892 484.159 224.279C485.228 222.638 486.206 220.943 487.089 219.2C488.081 217.298 488.941 215.334 489.663 213.32C490.604 210.741 491.133 208.036 491.233 205.301C491.264 204.03 491.017 202.767 490.509 201.596Z" fill="#FFC3BD"/>
<path d="M451.695 154.294C468.234 157.055 479.01 178.877 479.01 178.877L459.076 199.779C459.076 199.779 447.588 188.378 440.686 177.814C433.244 166.317 439.852 152.334 451.695 154.294Z" fill="#263238"/>
<path d="M421.486 119.887C418.716 115.358 417.808 109.132 422.884 102.786C421.895 102.906 420.892 102.745 419.995 102.321C419.098 101.896 418.347 101.228 417.833 100.395C423.391 95.963 430.379 93.5921 437.559 93.7029C452.394 93.7029 453.497 99.284 452.995 103.096C463.146 103.73 470.551 129.46 444.817 134.013C430.093 118.895 421.486 119.887 421.486 119.887Z" fill="#263238"/>
<path d="M452.063 103.562C452.063 103.562 456.195 99.4513 451.058 94.4797C452.209 94.7876 453.259 95.3809 454.106 96.2018C454.952 97.0228 455.566 98.0435 455.888 99.1645C456.611 102.057 454.613 104.375 452.063 103.562Z" fill="#263238"/>
<path d="M446.374 130.871C445.982 138.794 445.246 147.805 446.607 154.127C444.499 157.366 439.104 161.094 429.443 161.931C426.01 160.031 421.474 155.382 423.056 152.992C427.163 150.422 428.904 142.642 427.727 136.822L446.374 130.871Z" fill="#FFC3BD"/>
<path opacity="0.2" d="M441.667 132.364L427.703 136.822C428.178 139.301 428.199 141.842 427.764 144.327C431.933 144.196 437.707 141.136 439.877 138.268C440.584 137.462 441.109 136.519 441.417 135.502C441.726 134.485 441.811 133.416 441.667 132.364Z" fill="black"/>
<path d="M450.445 118.322C447.858 128.038 446.852 133.858 440.747 137.933C431.564 144.064 420.015 137.192 419.562 126.926C419.169 117.676 423.46 103.335 434.127 101.292C436.475 100.832 438.905 100.966 441.186 101.68C443.466 102.394 445.522 103.665 447.157 105.371C448.792 107.078 449.952 109.163 450.528 111.43C451.103 113.696 451.074 116.069 450.445 118.322Z" fill="#FFC3BD"/>
<path d="M448.385 104.411C444.009 107.447 438.577 120.306 449.611 125.469C459.517 116.984 456.955 104.411 448.385 104.411Z" fill="#263238"/>
<path d="M450.91 105.953C452.786 97.4914 430.877 93.1173 423.938 103.001C421.584 108.952 449.586 114.211 450.91 105.953Z" fill="#263238"/>
<path d="M434.567 128.635C432.291 127.632 429.85 127.029 427.358 126.855C427.323 126.855 427.289 126.862 427.257 126.875C427.225 126.888 427.196 126.908 427.172 126.932C427.148 126.957 427.129 126.986 427.117 127.018C427.105 127.05 427.099 127.084 427.101 127.118C427.115 127.195 427.155 127.265 427.215 127.317C427.275 127.37 427.352 127.4 427.432 127.404C429.821 127.573 432.161 128.147 434.347 129.102C434.415 129.131 434.493 129.134 434.563 129.109C434.634 129.085 434.692 129.035 434.727 128.97C434.74 128.938 434.747 128.904 434.746 128.869C434.745 128.834 434.737 128.8 434.722 128.769C434.707 128.737 434.686 128.709 434.659 128.686C434.632 128.663 434.601 128.646 434.567 128.635Z" fill="#263238"/>
<path d="M452.835 128.946C451.058 130.785 448.607 131.863 446.018 131.946C442.585 132.018 441.715 128.827 443.37 126.102C444.866 123.712 448.445 120.652 451.559 121.871C454.674 123.09 454.992 126.664 452.835 128.946Z" fill="#FFC3BD"/>
<path d="M434.592 118.155C434.433 118.955 433.869 119.529 433.366 119.422C432.863 119.314 432.532 118.585 432.692 117.784C432.851 116.984 433.415 116.422 433.918 116.589C434.42 116.756 434.751 117.318 434.592 118.155Z" fill="#263238"/>
<path d="M425.311 116.398C425.152 117.199 424.588 117.76 424.085 117.665C423.583 117.569 423.239 116.828 423.399 116.027C423.558 115.227 424.122 114.653 424.625 114.761C425.127 114.868 425.422 115.597 425.311 116.398Z" fill="#263238"/>
<path d="M428.181 117.318C426.71 119.58 424.928 121.635 422.885 123.425C424.111 125.014 426.82 124.704 426.82 124.704L428.181 117.318Z" fill="#ED847E"/>
<path d="M433.257 113.506C433.344 113.487 433.435 113.49 433.521 113.515C433.607 113.54 433.685 113.586 433.747 113.649C434.141 114.113 434.642 114.479 435.208 114.718C435.775 114.957 436.392 115.061 437.008 115.023C437.138 115.006 437.27 115.039 437.375 115.115C437.48 115.191 437.551 115.304 437.572 115.43C437.583 115.492 437.58 115.555 437.564 115.617C437.549 115.678 437.521 115.735 437.482 115.785C437.443 115.836 437.394 115.878 437.338 115.909C437.282 115.94 437.22 115.96 437.155 115.967C436.377 116.029 435.595 115.907 434.874 115.614C434.153 115.321 433.515 114.865 433.012 114.282C432.966 114.239 432.929 114.187 432.904 114.129C432.879 114.072 432.866 114.01 432.866 113.948C432.866 113.885 432.879 113.824 432.904 113.766C432.929 113.709 432.966 113.657 433.012 113.613C433.084 113.56 433.168 113.524 433.257 113.506Z" fill="#263238"/>
<path d="M422.442 110.853C422.34 110.832 422.249 110.777 422.185 110.697C422.144 110.648 422.113 110.59 422.095 110.529C422.077 110.467 422.072 110.403 422.08 110.339C422.088 110.276 422.109 110.214 422.142 110.159C422.174 110.103 422.218 110.055 422.271 110.016C422.873 109.535 423.584 109.201 424.345 109.041C425.106 108.881 425.895 108.9 426.647 109.096C426.772 109.137 426.874 109.224 426.934 109.338C426.994 109.451 427.005 109.583 426.966 109.706C426.917 109.821 426.826 109.915 426.711 109.97C426.596 110.025 426.465 110.037 426.341 110.004C425.742 109.855 425.115 109.847 424.512 109.98C423.909 110.113 423.346 110.383 422.871 110.769C422.814 110.819 422.744 110.854 422.669 110.868C422.593 110.883 422.515 110.878 422.442 110.853Z" fill="#263238"/>
<path d="M462.018 237.497L451.487 237.425L456.93 249.209C456.93 249.209 465.917 247.332 465.426 242.576L462.018 237.497Z" fill="#FFC3BD"/>
<path d="M446.129 245.516L447.858 248.838C448.322 249.723 449.109 250.407 450.064 250.756C451.018 251.105 452.072 251.095 453.019 250.726L456.93 249.209L451.487 237.425L447.306 240.532C446.54 241.096 446.003 241.904 445.788 242.815C445.572 243.727 445.693 244.683 446.129 245.516Z" fill="#FFC3BD"/>
<path d="M381.851 228.82C380.579 228.807 379.338 228.433 378.281 227.742C377.224 227.052 376.397 226.076 375.901 224.934C375.405 223.791 375.262 222.533 375.489 221.313C375.716 220.092 376.304 218.963 377.18 218.064C381.863 213.355 386.093 209.698 389.82 206.507C398.819 198.775 401.921 195.752 401.626 189.955C401.186 186.379 400.406 182.851 399.297 179.415C396.612 169.794 393.572 158.907 398.782 150.171C401.577 145.474 406.322 142.259 412.893 140.61C414.555 140.226 416.305 140.492 417.767 141.351C419.229 142.211 420.288 143.595 420.715 145.206C421.142 146.818 420.903 148.529 420.05 149.971C419.198 151.413 417.799 152.472 416.154 152.92C411.532 154.115 410.417 155.943 410.024 156.565C407.572 160.688 409.939 169.221 411.851 176.068C413.236 180.387 414.165 184.832 414.622 189.334C415.235 201.584 407.818 207.965 398.414 216.044C394.871 219.104 390.838 222.57 386.498 226.92C385.892 227.523 385.169 228.001 384.371 228.328C383.573 228.654 382.716 228.821 381.851 228.82Z" fill="#407BFF"/>
<path d="M396.158 137.515L406.358 134.97L403.98 147.685C403.98 147.685 394.797 147.96 394.11 143.24L396.158 137.515Z" fill="#FFC3BD"/>
<path d="M413.518 141.71L412.733 145.032C412.492 146.047 411.87 146.937 410.99 147.528C410.11 148.118 409.035 148.367 407.976 148.223L403.979 147.685L406.358 134.97L411.041 136.942C411.961 137.328 412.713 138.017 413.166 138.888C413.619 139.76 413.743 140.758 413.518 141.71Z" fill="#FFC3BD"/>
<path d="M378.203 207.909L377.925 207.639C376.685 206.43 374.675 206.43 373.435 207.639L337.282 242.893C336.042 244.102 336.043 246.062 337.283 247.27L337.56 247.541C338.801 248.749 340.811 248.749 342.051 247.54L378.204 212.286C379.443 211.077 379.443 209.117 378.203 207.909Z" fill="#263238"/>
<path d="M397.045 226.253L396.768 225.982C395.528 224.773 393.517 224.773 392.277 225.982L356.118 261.23C354.878 262.438 354.878 264.398 356.118 265.607L356.396 265.877C357.636 267.086 359.646 267.086 360.886 265.877L397.045 230.63C398.285 229.421 398.285 227.461 397.045 226.253Z" fill="#263238"/>
<path d="M348.689 221.032L374.168 196.196C374.984 195.4 375.953 194.769 377.02 194.338C378.086 193.908 379.229 193.686 380.384 193.686C381.538 193.686 382.681 193.908 383.748 194.338C384.814 194.769 385.783 195.4 386.6 196.196L408.871 217.905C409.687 218.701 410.334 219.646 410.776 220.685C411.218 221.725 411.445 222.839 411.445 223.964C411.445 225.09 411.218 226.204 410.776 227.243C410.334 228.283 409.687 229.228 408.871 230.023L383.392 254.86L348.689 221.032Z" fill="#407BFF"/>
<path opacity="0.7" d="M348.689 221.032L374.168 196.196C374.984 195.4 375.953 194.769 377.02 194.338C378.086 193.908 379.229 193.686 380.384 193.686C381.538 193.686 382.681 193.908 383.748 194.338C384.814 194.769 385.783 195.4 386.6 196.196L408.871 217.905C409.687 218.701 410.334 219.646 410.776 220.685C411.218 221.725 411.445 222.839 411.445 223.964C411.445 225.09 411.218 226.204 410.776 227.243C410.334 228.283 409.687 229.228 408.871 230.023L383.392 254.86L348.689 221.032Z" fill="white"/>
<path opacity="0.2" d="M357.477 212.399L348.649 220.992L383.357 254.825L392.172 246.221C391.822 245.22 391.238 244.312 390.468 243.567L360.198 214.12C359.441 213.348 358.509 212.759 357.477 212.399Z" fill="#407BFF"/>
<path d="M347.161 216.66L346.528 217.276C343.838 219.899 343.838 224.152 346.528 226.775L377.434 256.901C380.125 259.524 384.487 259.524 387.178 256.901L387.811 256.284C390.501 253.661 390.501 249.409 387.811 246.786L356.905 216.66C354.214 214.037 349.852 214.037 347.161 216.66Z" fill="#407BFF"/>
<path d="M443.224 1.34644H169.777C164.076 1.34644 159.454 5.85165 159.454 11.4091V60.0255C159.454 65.5829 164.076 70.0882 169.777 70.0882H443.224C448.925 70.0882 453.547 65.5829 453.547 60.0255V11.4091C453.547 5.85165 448.925 1.34644 443.224 1.34644Z" fill="white"/>
<path d="M443.224 70.9726H169.826C166.848 70.9694 163.994 69.8151 161.889 67.7628C159.783 65.7105 158.599 62.9279 158.596 60.0255V11.4092C158.599 8.50684 159.783 5.72425 161.889 3.67197C163.994 1.61968 166.848 0.465322 169.826 0.462158H443.224C446.201 0.465322 449.056 1.61968 451.161 3.67197C453.267 5.72425 454.451 8.50684 454.454 11.4092V60.0255C454.451 62.9279 453.267 65.7105 451.161 67.7628C449.056 69.8151 446.201 70.9694 443.224 70.9726ZM169.826 2.23089C167.33 2.23406 164.937 3.20207 163.172 4.92265C161.406 6.64323 160.413 8.97593 160.41 11.4092V60.0255C160.413 62.4588 161.406 64.7915 163.172 66.5121C164.937 68.2327 167.33 69.2007 169.826 69.2039H443.224C445.72 69.2007 448.113 68.2327 449.878 66.5121C451.643 64.7915 452.636 62.4588 452.64 60.0255V11.4092C452.636 8.97593 451.643 6.64323 449.878 4.92265C448.113 3.20207 445.72 2.23406 443.224 2.23089H169.826Z" fill="#263238"/>
<path d="M306.501 105.403C319.054 105.403 329.231 95.4833 329.231 83.2464C329.231 71.0094 319.054 61.0894 306.501 61.0894C293.947 61.0894 283.771 71.0094 283.771 83.2464C283.771 95.4833 293.947 105.403 306.501 105.403Z" fill="#263238"/>
<path d="M306.501 102.105C317.185 102.105 325.847 93.6613 325.847 83.246C325.847 72.8307 317.185 64.3875 306.501 64.3875C295.816 64.3875 287.154 72.8307 287.154 83.246C287.154 93.6613 295.816 102.105 306.501 102.105Z" fill="white"/>
<path d="M319.582 79.1831H310.509L318.123 57.2292L293.419 87.3097H302.491L294.878 109.264L319.582 79.1831Z" fill="#407BFF"/>
<path d="M320.359 99.3829L323.063 96.7463L292.643 67.0933L289.939 69.7298L320.359 99.3829Z" fill="#263238"/>
<path d="M216.7 49V31.5H223.175C224.575 31.5 225.733 31.7333 226.65 32.2C227.567 32.6667 228.25 33.3083 228.7 34.125C229.15 34.9417 229.375 35.8583 229.375 36.875C229.375 37.8417 229.158 38.7333 228.725 39.55C228.292 40.35 227.617 41 226.7 41.5C225.783 41.9833 224.608 42.225 223.175 42.225H219.9V49H216.7ZM219.9 39.625H222.975C224.092 39.625 224.892 39.3833 225.375 38.9C225.875 38.4 226.125 37.725 226.125 36.875C226.125 36.0083 225.875 35.3333 225.375 34.85C224.892 34.35 224.092 34.1 222.975 34.1H219.9V39.625ZM234.804 49.3C233.738 49.3 232.863 49.1333 232.179 48.8C231.496 48.45 230.988 47.9917 230.654 47.425C230.321 46.8583 230.154 46.2333 230.154 45.55C230.154 44.4 230.604 43.4667 231.504 42.75C232.404 42.0333 233.754 41.675 235.554 41.675H238.704V41.375C238.704 40.525 238.463 39.9 237.979 39.5C237.496 39.1 236.896 38.9 236.179 38.9C235.529 38.9 234.963 39.0583 234.479 39.375C233.996 39.675 233.696 40.125 233.579 40.725H230.454C230.538 39.825 230.838 39.0417 231.354 38.375C231.888 37.7083 232.571 37.2 233.404 36.85C234.238 36.4833 235.171 36.3 236.204 36.3C237.971 36.3 239.363 36.7417 240.379 37.625C241.396 38.5083 241.904 39.7583 241.904 41.375V49H239.179L238.879 47C238.513 47.6667 237.996 48.2167 237.329 48.65C236.679 49.0833 235.838 49.3 234.804 49.3ZM235.529 46.8C236.446 46.8 237.154 46.5 237.654 45.9C238.171 45.3 238.496 44.5583 238.629 43.675H235.904C235.054 43.675 234.446 43.8333 234.079 44.15C233.713 44.45 233.529 44.825 233.529 45.275C233.529 45.7583 233.713 46.1333 234.079 46.4C234.446 46.6667 234.929 46.8 235.529 46.8ZM249.708 45.3C249.108 45.3 248.55 45.2333 248.033 45.1L247.108 46.025C247.391 46.175 247.775 46.3 248.258 46.4C248.741 46.5 249.525 46.6 250.608 46.7C252.258 46.85 253.458 47.2417 254.208 47.875C254.958 48.5083 255.333 49.3833 255.333 50.5C255.333 51.2333 255.133 51.925 254.733 52.575C254.333 53.2417 253.716 53.775 252.883 54.175C252.05 54.5917 250.983 54.8 249.683 54.8C247.916 54.8 246.491 54.4667 245.408 53.8C244.325 53.15 243.783 52.1667 243.783 50.85C243.783 49.7333 244.325 48.7667 245.408 47.95C245.075 47.8 244.783 47.6417 244.533 47.475C244.3 47.3083 244.091 47.1333 243.908 46.95V46.375L246.083 44.075C245.116 43.225 244.633 42.1333 244.633 40.8C244.633 39.9667 244.833 39.2083 245.233 38.525C245.65 37.8417 246.233 37.3 246.983 36.9C247.733 36.5 248.641 36.3 249.708 36.3C250.408 36.3 251.058 36.4 251.658 36.6H256.358V38.55L254.233 38.7C254.566 39.3333 254.733 40.0333 254.733 40.8C254.733 41.6333 254.533 42.3917 254.133 43.075C253.733 43.7583 253.15 44.3 252.383 44.7C251.633 45.1 250.741 45.3 249.708 45.3ZM249.708 42.85C250.358 42.85 250.891 42.675 251.308 42.325C251.741 41.975 251.958 41.475 251.958 40.825C251.958 40.175 251.741 39.675 251.308 39.325C250.891 38.975 250.358 38.8 249.708 38.8C249.025 38.8 248.475 38.975 248.058 39.325C247.641 39.675 247.433 40.175 247.433 40.825C247.433 41.475 247.641 41.975 248.058 42.325C248.475 42.675 249.025 42.85 249.708 42.85ZM246.708 50.525C246.708 51.1417 246.991 51.6 247.558 51.9C248.141 52.2167 248.85 52.375 249.683 52.375C250.483 52.375 251.133 52.2083 251.633 51.875C252.133 51.5583 252.383 51.125 252.383 50.575C252.383 50.125 252.216 49.75 251.883 49.45C251.566 49.15 250.925 48.9667 249.958 48.9C249.275 48.85 248.641 48.775 248.058 48.675C247.575 48.9417 247.225 49.2333 247.008 49.55C246.808 49.8667 246.708 50.1917 246.708 50.525ZM263.728 49.3C262.478 49.3 261.37 49.0333 260.403 48.5C259.436 47.9667 258.678 47.2167 258.128 46.25C257.578 45.2833 257.303 44.1667 257.303 42.9C257.303 41.6167 257.57 40.475 258.103 39.475C258.653 38.475 259.403 37.7 260.353 37.15C261.32 36.5833 262.453 36.3 263.753 36.3C264.97 36.3 266.045 36.5667 266.978 37.1C267.911 37.6333 268.636 38.3667 269.153 39.3C269.686 40.2167 269.953 41.2417 269.953 42.375C269.953 42.5583 269.945 42.75 269.928 42.95C269.928 43.15 269.92 43.3583 269.903 43.575H260.478C260.545 44.5417 260.878 45.3 261.478 45.85C262.095 46.4 262.836 46.675 263.703 46.675C264.353 46.675 264.895 46.5333 265.328 46.25C265.778 45.95 266.111 45.5667 266.328 45.1H269.578C269.345 45.8833 268.953 46.6 268.403 47.25C267.87 47.8833 267.203 48.3833 266.403 48.75C265.62 49.1167 264.728 49.3 263.728 49.3ZM263.753 38.9C262.97 38.9 262.278 39.125 261.678 39.575C261.078 40.0083 260.695 40.675 260.528 41.575H266.703C266.653 40.7583 266.353 40.1083 265.803 39.625C265.253 39.1417 264.57 38.9 263.753 38.9ZM277.677 49V31.5H280.877L289.102 43.825V31.5H292.302V49H289.102L280.877 36.7V49H277.677ZM301.069 49.3C299.869 49.3 298.786 49.025 297.819 48.475C296.869 47.925 296.111 47.1667 295.544 46.2C294.994 45.2167 294.719 44.0833 294.719 42.8C294.719 41.5167 295.002 40.3917 295.569 39.425C296.136 38.4417 296.894 37.675 297.844 37.125C298.811 36.575 299.894 36.3 301.094 36.3C302.277 36.3 303.344 36.575 304.294 37.125C305.261 37.675 306.019 38.4417 306.569 39.425C307.136 40.3917 307.419 41.5167 307.419 42.8C307.419 44.0833 307.136 45.2167 306.569 46.2C306.019 47.1667 305.261 47.925 304.294 48.475C303.327 49.025 302.252 49.3 301.069 49.3ZM301.069 46.525C301.902 46.525 302.627 46.2167 303.244 45.6C303.861 44.9667 304.169 44.0333 304.169 42.8C304.169 41.5667 303.861 40.6417 303.244 40.025C302.627 39.3917 301.911 39.075 301.094 39.075C300.244 39.075 299.511 39.3917 298.894 40.025C298.294 40.6417 297.994 41.5667 297.994 42.8C297.994 44.0333 298.294 44.9667 298.894 45.6C299.511 46.2167 300.236 46.525 301.069 46.525ZM314.817 49C313.517 49 312.475 48.6833 311.692 48.05C310.909 47.4167 310.517 46.2917 310.517 44.675V39.275H308.392V36.6H310.517L310.892 33.275H313.717V36.6H317.067V39.275H313.717V44.7C313.717 45.3 313.842 45.7167 314.092 45.95C314.359 46.1667 314.809 46.275 315.442 46.275H316.992V49H314.817ZM324.846 49V31.5H336.146V34.075H328.046V38.975H334.596V41.5H328.046V49H324.846ZM343.332 49.3C342.132 49.3 341.049 49.025 340.082 48.475C339.132 47.925 338.374 47.1667 337.807 46.2C337.257 45.2167 336.982 44.0833 336.982 42.8C336.982 41.5167 337.265 40.3917 337.832 39.425C338.399 38.4417 339.157 37.675 340.107 37.125C341.074 36.575 342.157 36.3 343.357 36.3C344.54 36.3 345.607 36.575 346.557 37.125C347.524 37.675 348.282 38.4417 348.832 39.425C349.399 40.3917 349.682 41.5167 349.682 42.8C349.682 44.0833 349.399 45.2167 348.832 46.2C348.282 47.1667 347.524 47.925 346.557 48.475C345.59 49.025 344.515 49.3 343.332 49.3ZM343.332 46.525C344.165 46.525 344.89 46.2167 345.507 45.6C346.124 44.9667 346.432 44.0333 346.432 42.8C346.432 41.5667 346.124 40.6417 345.507 40.025C344.89 39.3917 344.174 39.075 343.357 39.075C342.507 39.075 341.774 39.3917 341.157 40.025C340.557 40.6417 340.257 41.5667 340.257 42.8C340.257 44.0333 340.557 44.9667 341.157 45.6C341.774 46.2167 342.499 46.525 343.332 46.525ZM356.693 49.3C355.143 49.3 353.943 48.8167 353.093 47.85C352.26 46.8833 351.843 45.4667 351.843 43.6V36.6H355.018V43.3C355.018 44.3667 355.235 45.1833 355.668 45.75C356.101 46.3167 356.785 46.6 357.718 46.6C358.601 46.6 359.326 46.2833 359.893 45.65C360.476 45.0167 360.768 44.1333 360.768 43V36.6H363.968V49H361.143L360.893 46.9C360.51 47.6333 359.951 48.2167 359.218 48.65C358.501 49.0833 357.66 49.3 356.693 49.3ZM366.753 49V36.6H369.578L369.828 38.7C370.211 37.9667 370.761 37.3833 371.478 36.95C372.211 36.5167 373.07 36.3 374.053 36.3C375.586 36.3 376.778 36.7833 377.628 37.75C378.478 38.7167 378.903 40.1333 378.903 42V49H375.703V42.3C375.703 41.2333 375.486 40.4167 375.053 39.85C374.62 39.2833 373.945 39 373.028 39C372.128 39 371.386 39.3167 370.803 39.95C370.236 40.5833 369.953 41.4667 369.953 42.6V49H366.753ZM387.163 49.3C385.996 49.3 384.955 49.0167 384.038 48.45C383.121 47.8833 382.396 47.1083 381.863 46.125C381.33 45.1417 381.063 44.025 381.063 42.775C381.063 41.525 381.33 40.4167 381.863 39.45C382.396 38.4667 383.121 37.7 384.038 37.15C384.955 36.5833 385.996 36.3 387.163 36.3C388.096 36.3 388.913 36.475 389.613 36.825C390.313 37.175 390.88 37.6667 391.313 38.3V31H394.513V49H391.663L391.313 47.225C390.913 47.775 390.38 48.2583 389.713 48.675C389.063 49.0917 388.213 49.3 387.163 49.3ZM387.838 46.5C388.871 46.5 389.713 46.1583 390.363 45.475C391.03 44.775 391.363 43.8833 391.363 42.8C391.363 41.7167 391.03 40.8333 390.363 40.15C389.713 39.45 388.871 39.1 387.838 39.1C386.821 39.1 385.98 39.4417 385.313 40.125C384.646 40.8083 384.313 41.6917 384.313 42.775C384.313 43.8583 384.646 44.75 385.313 45.45C385.98 46.15 386.821 46.5 387.838 46.5Z" fill="#2B3674"/>
<path d="M216.7 49V31.5H223.175C224.575 31.5 225.733 31.7333 226.65 32.2C227.567 32.6667 228.25 33.3083 228.7 34.125C229.15 34.9417 229.375 35.8583 229.375 36.875C229.375 37.8417 229.158 38.7333 228.725 39.55C228.292 40.35 227.617 41 226.7 41.5C225.783 41.9833 224.608 42.225 223.175 42.225H219.9V49H216.7ZM219.9 39.625H222.975C224.092 39.625 224.892 39.3833 225.375 38.9C225.875 38.4 226.125 37.725 226.125 36.875C226.125 36.0083 225.875 35.3333 225.375 34.85C224.892 34.35 224.092 34.1 222.975 34.1H219.9V39.625ZM234.804 49.3C233.738 49.3 232.863 49.1333 232.179 48.8C231.496 48.45 230.988 47.9917 230.654 47.425C230.321 46.8583 230.154 46.2333 230.154 45.55C230.154 44.4 230.604 43.4667 231.504 42.75C232.404 42.0333 233.754 41.675 235.554 41.675H238.704V41.375C238.704 40.525 238.463 39.9 237.979 39.5C237.496 39.1 236.896 38.9 236.179 38.9C235.529 38.9 234.963 39.0583 234.479 39.375C233.996 39.675 233.696 40.125 233.579 40.725H230.454C230.538 39.825 230.838 39.0417 231.354 38.375C231.888 37.7083 232.571 37.2 233.404 36.85C234.238 36.4833 235.171 36.3 236.204 36.3C237.971 36.3 239.363 36.7417 240.379 37.625C241.396 38.5083 241.904 39.7583 241.904 41.375V49H239.179L238.879 47C238.513 47.6667 237.996 48.2167 237.329 48.65C236.679 49.0833 235.838 49.3 234.804 49.3ZM235.529 46.8C236.446 46.8 237.154 46.5 237.654 45.9C238.171 45.3 238.496 44.5583 238.629 43.675H235.904C235.054 43.675 234.446 43.8333 234.079 44.15C233.713 44.45 233.529 44.825 233.529 45.275C233.529 45.7583 233.713 46.1333 234.079 46.4C234.446 46.6667 234.929 46.8 235.529 46.8ZM249.708 45.3C249.108 45.3 248.55 45.2333 248.033 45.1L247.108 46.025C247.391 46.175 247.775 46.3 248.258 46.4C248.741 46.5 249.525 46.6 250.608 46.7C252.258 46.85 253.458 47.2417 254.208 47.875C254.958 48.5083 255.333 49.3833 255.333 50.5C255.333 51.2333 255.133 51.925 254.733 52.575C254.333 53.2417 253.716 53.775 252.883 54.175C252.05 54.5917 250.983 54.8 249.683 54.8C247.916 54.8 246.491 54.4667 245.408 53.8C244.325 53.15 243.783 52.1667 243.783 50.85C243.783 49.7333 244.325 48.7667 245.408 47.95C245.075 47.8 244.783 47.6417 244.533 47.475C244.3 47.3083 244.091 47.1333 243.908 46.95V46.375L246.083 44.075C245.116 43.225 244.633 42.1333 244.633 40.8C244.633 39.9667 244.833 39.2083 245.233 38.525C245.65 37.8417 246.233 37.3 246.983 36.9C247.733 36.5 248.641 36.3 249.708 36.3C250.408 36.3 251.058 36.4 251.658 36.6H256.358V38.55L254.233 38.7C254.566 39.3333 254.733 40.0333 254.733 40.8C254.733 41.6333 254.533 42.3917 254.133 43.075C253.733 43.7583 253.15 44.3 252.383 44.7C251.633 45.1 250.741 45.3 249.708 45.3ZM249.708 42.85C250.358 42.85 250.891 42.675 251.308 42.325C251.741 41.975 251.958 41.475 251.958 40.825C251.958 40.175 251.741 39.675 251.308 39.325C250.891 38.975 250.358 38.8 249.708 38.8C249.025 38.8 248.475 38.975 248.058 39.325C247.641 39.675 247.433 40.175 247.433 40.825C247.433 41.475 247.641 41.975 248.058 42.325C248.475 42.675 249.025 42.85 249.708 42.85ZM246.708 50.525C246.708 51.1417 246.991 51.6 247.558 51.9C248.141 52.2167 248.85 52.375 249.683 52.375C250.483 52.375 251.133 52.2083 251.633 51.875C252.133 51.5583 252.383 51.125 252.383 50.575C252.383 50.125 252.216 49.75 251.883 49.45C251.566 49.15 250.925 48.9667 249.958 48.9C249.275 48.85 248.641 48.775 248.058 48.675C247.575 48.9417 247.225 49.2333 247.008 49.55C246.808 49.8667 246.708 50.1917 246.708 50.525ZM263.728 49.3C262.478 49.3 261.37 49.0333 260.403 48.5C259.436 47.9667 258.678 47.2167 258.128 46.25C257.578 45.2833 257.303 44.1667 257.303 42.9C257.303 41.6167 257.57 40.475 258.103 39.475C258.653 38.475 259.403 37.7 260.353 37.15C261.32 36.5833 262.453 36.3 263.753 36.3C264.97 36.3 266.045 36.5667 266.978 37.1C267.911 37.6333 268.636 38.3667 269.153 39.3C269.686 40.2167 269.953 41.2417 269.953 42.375C269.953 42.5583 269.945 42.75 269.928 42.95C269.928 43.15 269.92 43.3583 269.903 43.575H260.478C260.545 44.5417 260.878 45.3 261.478 45.85C262.095 46.4 262.836 46.675 263.703 46.675C264.353 46.675 264.895 46.5333 265.328 46.25C265.778 45.95 266.111 45.5667 266.328 45.1H269.578C269.345 45.8833 268.953 46.6 268.403 47.25C267.87 47.8833 267.203 48.3833 266.403 48.75C265.62 49.1167 264.728 49.3 263.728 49.3ZM263.753 38.9C262.97 38.9 262.278 39.125 261.678 39.575C261.078 40.0083 260.695 40.675 260.528 41.575H266.703C266.653 40.7583 266.353 40.1083 265.803 39.625C265.253 39.1417 264.57 38.9 263.753 38.9ZM277.677 49V31.5H280.877L289.102 43.825V31.5H292.302V49H289.102L280.877 36.7V49H277.677ZM301.069 49.3C299.869 49.3 298.786 49.025 297.819 48.475C296.869 47.925 296.111 47.1667 295.544 46.2C294.994 45.2167 294.719 44.0833 294.719 42.8C294.719 41.5167 295.002 40.3917 295.569 39.425C296.136 38.4417 296.894 37.675 297.844 37.125C298.811 36.575 299.894 36.3 301.094 36.3C302.277 36.3 303.344 36.575 304.294 37.125C305.261 37.675 306.019 38.4417 306.569 39.425C307.136 40.3917 307.419 41.5167 307.419 42.8C307.419 44.0833 307.136 45.2167 306.569 46.2C306.019 47.1667 305.261 47.925 304.294 48.475C303.327 49.025 302.252 49.3 301.069 49.3ZM301.069 46.525C301.902 46.525 302.627 46.2167 303.244 45.6C303.861 44.9667 304.169 44.0333 304.169 42.8C304.169 41.5667 303.861 40.6417 303.244 40.025C302.627 39.3917 301.911 39.075 301.094 39.075C300.244 39.075 299.511 39.3917 298.894 40.025C298.294 40.6417 297.994 41.5667 297.994 42.8C297.994 44.0333 298.294 44.9667 298.894 45.6C299.511 46.2167 300.236 46.525 301.069 46.525ZM314.817 49C313.517 49 312.475 48.6833 311.692 48.05C310.909 47.4167 310.517 46.2917 310.517 44.675V39.275H308.392V36.6H310.517L310.892 33.275H313.717V36.6H317.067V39.275H313.717V44.7C313.717 45.3 313.842 45.7167 314.092 45.95C314.359 46.1667 314.809 46.275 315.442 46.275H316.992V49H314.817ZM324.846 49V31.5H336.146V34.075H328.046V38.975H334.596V41.5H328.046V49H324.846ZM343.332 49.3C342.132 49.3 341.049 49.025 340.082 48.475C339.132 47.925 338.374 47.1667 337.807 46.2C337.257 45.2167 336.982 44.0833 336.982 42.8C336.982 41.5167 337.265 40.3917 337.832 39.425C338.399 38.4417 339.157 37.675 340.107 37.125C341.074 36.575 342.157 36.3 343.357 36.3C344.54 36.3 345.607 36.575 346.557 37.125C347.524 37.675 348.282 38.4417 348.832 39.425C349.399 40.3917 349.682 41.5167 349.682 42.8C349.682 44.0833 349.399 45.2167 348.832 46.2C348.282 47.1667 347.524 47.925 346.557 48.475C345.59 49.025 344.515 49.3 343.332 49.3ZM343.332 46.525C344.165 46.525 344.89 46.2167 345.507 45.6C346.124 44.9667 346.432 44.0333 346.432 42.8C346.432 41.5667 346.124 40.6417 345.507 40.025C344.89 39.3917 344.174 39.075 343.357 39.075C342.507 39.075 341.774 39.3917 341.157 40.025C340.557 40.6417 340.257 41.5667 340.257 42.8C340.257 44.0333 340.557 44.9667 341.157 45.6C341.774 46.2167 342.499 46.525 343.332 46.525ZM356.693 49.3C355.143 49.3 353.943 48.8167 353.093 47.85C352.26 46.8833 351.843 45.4667 351.843 43.6V36.6H355.018V43.3C355.018 44.3667 355.235 45.1833 355.668 45.75C356.101 46.3167 356.785 46.6 357.718 46.6C358.601 46.6 359.326 46.2833 359.893 45.65C360.476 45.0167 360.768 44.1333 360.768 43V36.6H363.968V49H361.143L360.893 46.9C360.51 47.6333 359.951 48.2167 359.218 48.65C358.501 49.0833 357.66 49.3 356.693 49.3ZM366.753 49V36.6H369.578L369.828 38.7C370.211 37.9667 370.761 37.3833 371.478 36.95C372.211 36.5167 373.07 36.3 374.053 36.3C375.586 36.3 376.778 36.7833 377.628 37.75C378.478 38.7167 378.903 40.1333 378.903 42V49H375.703V42.3C375.703 41.2333 375.486 40.4167 375.053 39.85C374.62 39.2833 373.945 39 373.028 39C372.128 39 371.386 39.3167 370.803 39.95C370.236 40.5833 369.953 41.4667 369.953 42.6V49H366.753ZM387.163 49.3C385.996 49.3 384.955 49.0167 384.038 48.45C383.121 47.8833 382.396 47.1083 381.863 46.125C381.33 45.1417 381.063 44.025 381.063 42.775C381.063 41.525 381.33 40.4167 381.863 39.45C382.396 38.4667 383.121 37.7 384.038 37.15C384.955 36.5833 385.996 36.3 387.163 36.3C388.096 36.3 388.913 36.475 389.613 36.825C390.313 37.175 390.88 37.6667 391.313 38.3V31H394.513V49H391.663L391.313 47.225C390.913 47.775 390.38 48.2583 389.713 48.675C389.063 49.0917 388.213 49.3 387.163 49.3ZM387.838 46.5C388.871 46.5 389.713 46.1583 390.363 45.475C391.03 44.775 391.363 43.8833 391.363 42.8C391.363 41.7167 391.03 40.8333 390.363 40.15C389.713 39.45 388.871 39.1 387.838 39.1C386.821 39.1 385.98 39.4417 385.313 40.125C384.646 40.8083 384.313 41.6917 384.313 42.775C384.313 43.8583 384.646 44.75 385.313 45.45C385.98 46.15 386.821 46.5 387.838 46.5Z" fill="black" fill-opacity="0.2"/>
</svg>
